<svg xmlns="http://www.w3.org/2000/svg" viewBox="0 0 3187.52 600"><title>logo_2</title><path d="M751.19,493V127.77q10.69-2.13,28.07-2.14t28.61,2.14V493q-11.22,2.13-28.61,2.14T751.19,493Z"/><path d="M1110.54,311.73v124.6q0,31.56,9.09,48.66A48.89,48.89,0,0,1,1087,496.76q-18.18,0-24.86-8.83t-6.69-26.47V325.63q0-27.79-7.22-39.57t-24.86-11.76q-17.65,0-36.1,8.82a102.31,102.31,0,0,0-32.35,24.33V493q-9.1,2.13-27.28,2.14-8.55,0-15.5-.53a105,105,0,0,1-12.3-1.61V229.91l3.21-3.21h20.85q28.88,0,30.48,33.16,39-35.82,85-35.83,35.82,0,53.48,23.79T1110.54,311.73Z"/><path d="M1268.83,448.09l63.1-219.25a117.1,117.1,0,0,1,23.8-2.14,69.33,69.33,0,0,1,24.86,4.28l1.61,2.14Q1342.09,367.88,1299.85,493a217.05,217.05,0,0,1-36.37,2.67q-20.85,0-29.14-5.88t-14.71-24.6l-73.8-232.08q17.65-8,31.56-8,24.06,0,29.94,23.53l35.83,117.64q10.15,32.09,20.86,77.54C1264.73,446.67,1266.33,448.09,1268.83,448.09Z"/><path d="M1594.49,470.55Q1565.08,500,1517,500q-27.81,0-49.2-9.89a98.23,98.23,0,0,1-36.09-28.34q-14.72-18.45-22.46-43.85t-7.76-56.95q0-31,7.76-56.69t22.46-44.12a98.34,98.34,0,0,1,36.09-28.34q21.39-9.89,49.2-9.89t49.2,9.89a98.5,98.5,0,0,1,36.09,28.34q14.71,18.45,22.46,44.12t7.76,56.69Q1632.46,432.59,1594.49,470.55Zm-77.27-206.42q-58,0-58,96.8t58,96.79q58.54,0,58.55-96.79T1517.22,264.13Z"/><path d="M1760.26,274.83V493q-10.17,2.13-27.54,2.14T1705.18,493V297.29q0-15-5.35-21.39t-18.18-6.42h-5.88a91.66,91.66,0,0,1-2.68-19.78,98.9,98.9,0,0,1,2.68-20.32,279.4,279.4,0,0,1,33.69-2.14h7.48q20.32,0,31.82,12.83T1760.26,274.83Zm-66.84-95.72q-4.82-9.63-4.82-23.53,0-21.92,8-25.94t26.74-4.54q21.39.54,27.27,5.35t6.42,25.13q-.54,19.24-6.42,24.6t-27.27,5.88Q1702.51,186.06,1693.42,179.11Z"/><path d="M1982.18,331V325.1q0-60.44-46.81-60.43-25.53,0-39.36,24.6t-13.83,73.26q0,92,60.21,92,29.83,0,64.47-26.74,7.47,4.29,14.39,13.9t9.06,18.72Q1990.73,500,1934.59,500q-28.35,0-48.93-10.42a94.79,94.79,0,0,1-34.23-29.15q-13.64-18.7-20.32-44.92t-6.68-57.75q0-32.61,9.09-58t24.33-42.52a105.17,105.17,0,0,1,35.3-26.2,101.75,101.75,0,0,1,42.51-9.09q23,0,40.91,7A99.18,99.18,0,0,1,2007.05,247,77.85,77.85,0,0,1,2026.3,273a71.25,71.25,0,0,1,6.68,29.68q0,30.48-27.8,30.48Q1991.26,333.12,1982.18,331Z"/><path d="M2287,378.57H2129.77q1.61,36.9,15.78,56.69T2193.41,455a137,137,0,0,0,34.49-4.81,172.14,172.14,0,0,0,38.24-15.51q13.35,12.31,17.64,35.3Q2241,500,2183.25,500q-30.48,0-51.34-10.69A91.92,91.92,0,0,1,2098,459.86q-13.12-18.72-19-44.66a251.73,251.73,0,0,1-5.88-55.88,192.82,192.82,0,0,1,7.49-54.81q7.47-25.39,21.39-43.58a99.24,99.24,0,0,1,34.49-28.61q20.58-10.44,46.25-10.43t45.73,8.56a96.59,96.59,0,0,1,33.95,23.79,102.43,102.43,0,0,1,21.13,36.37,140.55,140.55,0,0,1,7.22,45.72q0,10.69-.81,21.12A176.78,176.78,0,0,1,2287,378.57Zm-102.67-115.5q-50.81,0-54.55,75.4h108v-7q0-30.48-13.1-49.46T2184.32,263.07Z"/><path d="M2563.46,468.41q-6.42,19.26-20.85,28.35-31.56-5.88-42.78-33.16-38,36.38-78.08,36.36-20.33,0-35.56-6.41a75.12,75.12,0,0,1-25.67-17.38A70.81,70.81,0,0,1,2345,451a87.13,87.13,0,0,1-5.08-29.68q0-43.83,28.08-66.31t74.6-22.46q13.35,0,26.2.81a230.65,230.65,0,0,1,25.13,2.94v-21q0-48-43.85-48-30.48,0-84,20.86-15.53-13.36-16-40.11,54.55-24.59,110.7-24.6,41.72,0,64.7,22.2t23,67.11V422.42Q2548.49,455.58,2563.46,468.41Zm-132.62-12.3q34.22,0,63.1-32.08v-50.8q-10.7-1.07-22.46-1.61t-24.6-.53q-24.6,0-38.23,12T2395,414.94q0,19.24,9.63,30.21T2430.84,456.11Z"/><path d="M2704.1,451.3h19.78q4.82,13.53,4.82,23.82t-1.61,16.24a261.06,261.06,0,0,1-45.45,3.79q-52.95,0-52.94-55.08V103.17l3.74-3.21h20.86q16.56,0,23.26,8.28t6.68,27V427.27Q2683.24,451.32,2704.1,451.3Z"/><path d="M2956.5,470.55Q2927.09,500,2879,500q-27.81,0-49.2-9.89a98.23,98.23,0,0,1-36.09-28.34q-14.72-18.45-22.46-43.85t-7.76-56.95q0-31,7.76-56.69t22.46-44.12a98.34,98.34,0,0,1,36.09-28.34q21.39-9.89,49.2-9.89t49.2,9.89a98.53,98.53,0,0,1,36.1,28.34q14.7,18.45,22.46,44.12t7.75,56.69Q2994.47,432.59,2956.5,470.55Zm-77.27-206.42q-58,0-58,96.8t58,96.79q58.56,0,58.56-96.79T2879.23,264.13Z"/><path d="M3184.84,228.31a74.08,74.08,0,0,1,2.68,20.85,68.5,68.5,0,0,1-2.68,20.32l-65.77-1.07V427.84q0,23.46,21.92,23.46h36.9a70.85,70.85,0,0,1,4.28,24.09q0,12.18-1.07,16a495.34,495.34,0,0,1-59.89,3.79q-56.16,0-56.15-55.08V269l-39.57.53a87.33,87.33,0,0,1-2.14-20.05,102,102,0,0,1,2.14-21.12l39.57,1.07V182.32q0-19.26,6.41-27.28t23-8h20.86l3.74,3.75v79.14Z"/><path d="M300,0C134.31,0,0,134.31,0,300S134.31,600,300,600,600,465.69,600,300,465.69,0,300,0ZM266.67,300a30.09,30.09,0,0,1-30,30H130a30.09,30.09,0,0,1-30-30h0a30.09,30.09,0,0,1,30-30H236.67a30.09,30.09,0,0,1,30,30Zm0-120a30.09,30.09,0,0,1-30,30H130a30.09,30.09,0,0,1-30-30h0a30.09,30.09,0,0,1,30-30H236.67a30.09,30.09,0,0,1,30,30ZM500,420a30.09,30.09,0,0,1-30,30H363.33a30.09,30.09,0,0,1-30-30h0a30.09,30.09,0,0,1,30-30H470a30.09,30.09,0,0,1,30,30Zm0-120a30.09,30.09,0,0,1-30,30H363.33a30.09,30.09,0,0,1-30-30h0a30.09,30.09,0,0,1,30-30H470a30.09,30.09,0,0,1,30,30Zm0-120a30.09,30.09,0,0,1-30,30H363.33a30.09,30.09,0,0,1-30-30h0a30.09,30.09,0,0,1,30-30H470a30.09,30.09,0,0,1,30,30Z"/></svg>